{"title":"Future Ft. Miley Cyrus &amp; Mr Hudson - Real And True [Music Vi","uid":9200113,"size":43574961,"categoryP":"video","categoryS":"music_videos","magnet":"?xt=urn:btih:30f365c00acfdfe68188de7b6cbb5368388eda29&amp;dn=Future+Ft.+Miley+Cyrus+%26amp%3B+Mr+Hudson+-+Real+And+True+%5BMusic+Vi&amp;tr=udp%3A%2F%2Ftracker.openbittorrent.com%3A80&amp;tr=udp%3A%2F%2Fopen.demonii.com%3A1337&amp;tr=udp%3A%2F%2Ftracker.coppersurfer.tk%3A6969&amp;tr=udp%3A%2F%2Fexodus.desync.com%3A6969","seeders":2,"leechers":0,"uploader":"Sbyky","files":1,"time":1384574726,"description":"[IMG]http://cdn.piczend.com/images/VEGuFZqQ/1384570371_realandtrue.jpg[/IMG]\n\nGeneral\nComplete name                            : Future Ft. Miley Cyrus &amp; Mr Hudson - Real And True [Music Video] 720p [Sbyky].MP4\nFormat                                   : MPEG-4\nFormat profile                           : Base Media\nCodec ID                                 : isom\nFile size                                : 41.6 MiB\nDuration                                 : 4mn 33s\nOverall bit rate mode                    : Variable\nOverall bit rate                         : 1 274 Kbps\nEncoded date                             : UTC 2013-11-11 10:30:34\nTagged date                              : UTC 2013-11-11 10:30:34\n\nVideo\nID                                       : 1\nFormat                                   : AVC\nFormat/Info                              : Advanced Video Codec\nFormat profile                           : &lt;a class=&quot;__cf_email__&quot; href=&quot;/cdn-cgi/l/email-protection&quot; data-cfemail=&quot;9fd2fef6f1dfd3acb1ae&quot;&gt;[email&amp;#160;protected]&lt;/a&gt;&lt;script cf-hash='f9e31' type=&quot;text/javascript&quot;&gt;\n/* &lt;![CDATA[ */!function(){try{var t=&quot;currentScript&quot;in document?document.currentScript:function(){for(var t=document.getElementsByTagName(&quot;script&quot;),e=t.length;e--;)if(t[e].getAttribute(&quot;cf-hash&quot;))return t[e]}();if(t&amp;&amp;t.previousSibling){var e,r,n,i,c=t.previousSibling,a=c.getAttribute(&quot;data-cfemail&quot;);if(a){for(e=&quot;&quot;,r=parseInt(a.substr(0,2),16),n=2;a.length-n;n+=2)i=parseInt(a.substr(n,2),16)^r,e+=String.fromCharCode(i);e=document.createTextNode(e),c.parentNode.replaceChild(e,c)}}}catch(u){}}();/* ]]&gt; */&lt;/script&gt;\nFormat settings, CABAC                   : Yes\nFormat settings, ReFrames                : 3 frames\nCodec ID                                 : avc1\nCodec ID/Info                            : Advanced Video Coding\nDuration                                 : 4mn 33s\nBit rate                                 : 1 017 Kbps\nWidth                                    : 1 280 pixels\nHeight                                   : 720 pixels\nDisplay aspect ratio                     : 16:9\nFrame rate mode                          : Constant\nFrame rate                               : 23.976 fps\nColor space                              : YUV\nChroma subsampling                       : 4:2:0\nBit depth                                : 8 bits\nScan type                                : Progressive\nBits/(Pixel*Frame)                       : 0.046\nStream size                              : 33.2 MiB (80%)\nEncoded date                             : UTC 2013-11-11 10:30:34\nTagged date                              : UTC 2013-11-11 10:30:34\n\nAudio\nID                                       : 2\nFormat                                   : AAC\nFormat/Info                              : Advanced Audio Codec\nFormat profile                           : LC\nCodec ID                                 : 40\nDuration                                 : 4mn 33s\nBit rate mode                            : Variable\nBit rate                                 : 254 Kbps\nChannel(s)                               : 2 channels\nChannel positions                        : Front: L R\nSampling rate                            : 44.1 KHz\nCompression mode                         : Lossy\nDelay relative to video                  : 42ms\nStream size                              : 8.27 MiB (20%)\nEncoded date                             : UTC 2013-11-11 10:29:55\nTagged date                              : UTC 2013-11-11 10:29:55\n\nShared By Sbyky\n[IMG]http://cdn.piczend.com/images/X3Ag13N3/1379453786_saythanks.gif[/IMG]\n[IMG]http://cdn.piczend.com/images/gGqhX2S8/1379453780_keepseeding.gif[/IMG]","torrent":{"xt":"urn:btih:30f365c00acfdfe68188de7b6cbb5368388eda29","amp;dn":"Future+Ft.+Miley+Cyrus+%26amp%3B+Mr+Hudson+-+Real+And+True+%5BMusic+Vi","amp;tr":["udp%3A%2F%2Ftracker.openbittorrent.com%3A80","udp%3A%2F%2Fopen.demonii.com%3A1337","udp%3A%2F%2Ftracker.coppersurfer.tk%3A6969","udp%3A%2F%2Fexodus.desync.com%3A6969"],"infoHash":"30f365c00acfdfe68188de7b6cbb5368388eda29","infoHashBuffer":{"type":"Buffer","data":[48,243,101,192,10,207,223,230,129,136,222,123,108,187,83,104,56,142,218,41]},"announce":[],"urlList":[]}}